<svg id="Layer_1" enable-background="new 0 0 512 512" height="512" viewBox="0 0 512 512" width="512" xmlns="http://www.w3.org/2000/svg"><path d="m448.8 232.967c-27.612 0-54.368-7.848-77.59-22.684 1.065-6.332-2.044-12.879-8.086-15.9-4.874-2.437-10.432-1.956-14.725.757-8.163-5.441-16.724-11.148-25.401-16.933 1.093-6.349-2.014-12.927-8.073-15.957-4.874-2.437-10.432-1.956-14.726.757-8.7-5.8-17.263-11.509-25.401-16.934 1.093-6.349-2.014-12.926-8.074-15.956-4.874-2.436-10.432-1.956-14.725.757-21.226-14.151-35.879-23.921-35.879-23.921-5.948-3.966-13.871-3.182-18.927 1.874l-29.346 29.346c-13.407 13.408-35.221 13.406-48.628 0-4.117-4.632-23.218-20.628-50.04-13.2-17.796 4.931-31.629 19.122-36.101 37.031l-16.564 66.257c-.298 1.19-.448 2.412-.448 3.639v64.267c0 .414.029.82.062 1.226-9.96 9.985-16.128 23.755-16.128 38.94v56.233c0 8.284 6.716 15 15 15h121.882c18.656 0 36.197-7.266 49.391-20.46.017-.017.034-.033.05-.05 5.507-5.473 13.713-7.147 20.92-4.264l30.529 12.215c20.852 8.333 42.801 12.559 65.238 12.559h97.59c61.426 0 111.4-49.974 111.4-111.4 0-34.839-28.344-63.199-63.2-63.199zm-48.2 144.6h-97.589c-18.606 0-36.81-3.505-54.097-10.414l-30.521-12.212c-5.967-2.388-12.199-3.547-18.379-3.547-12.862 0-25.485 5.031-34.946 14.491-.02.021-.041.041-.061.062-7.522 7.494-17.507 11.62-28.125 11.62h-106.882v-41.233c0-13.877 11.29-25.167 25.167-25.167h101.831c32.103 0 63.816 5.146 94.258 15.297 33.508 11.172 68.413 16.836 103.747 16.836h64.42c19.356 0 38.04-4.38 54.917-12.67-13.001 27.704-41.167 46.937-73.74 46.937zm-288.066-96.401c3.72-12.438 11.97-23.337 23.323-30.167 15.735-9.477 35.598-10.023 51.84-1.423 28.837 15.263 60.068 31.797 87.993 46.582l21.819 11.552c-12.418-2.443-24.69-5.681-36.764-9.707-33.507-11.172-68.413-16.837-103.747-16.837zm306.888 32.134h-2.756c-29.088 0-58.06-7.195-83.782-20.806l-43.157-22.849c-27.926-14.785-59.158-31.321-87.995-46.583-25.483-13.494-56.658-12.636-81.348 2.235-20.364 12.252-34.36 32.855-38.652 55.87h-35.665v-47.42l16.118-64.472c1.858-7.444 7.608-13.341 15.003-15.39 6.463-1.791 14.201-.727 20.818 5.501 25.104 25.104 65.95 25.104 91.055 0l20.65-20.65c6.561 4.375 15.91 10.607 26.95 17.968l-10.144 20.289c-3.705 7.41-.701 16.419 6.708 20.125 7.4 3.7 16.415.712 20.125-6.708l8.467-16.934c7.441 4.961 15.193 10.129 23.044 15.363l-10.144 20.288c-3.705 7.41-.701 16.419 6.708 20.125 7.4 3.7 16.415.712 20.125-6.708l8.467-16.934c7.883 5.255 15.636 10.423 23.044 15.362l-10.144 20.289c-3.705 7.41-.701 16.42 6.708 20.125 7.4 3.7 16.415.712 20.125-6.708l8.537-17.074c27.292 16.615 58.43 25.366 90.529 25.366 16.25 0 29.81 11.741 32.641 27.197-17.217 14.964-38.998 23.133-62.035 23.133z"/></svg>