<svg id="Capa_1" enable-background="new 0 0 510.544 510.544" height="512" viewBox="0 0 510.544 510.544" width="512" xmlns="http://www.w3.org/2000/svg"><path d="m490.452 289.731h-9.666c-4.143 0-7.5 3.358-7.5 7.5s3.357 7.5 7.5 7.5h9.666c2.809 0 5.093 2.284 5.093 5.092v30.702c0 4.274-3.478 7.752-7.753 7.752h-374.766c-.926 0-1.851-.223-2.674-.646l-94.979-48.713 2.68-7.145 75.787 26.293c.817.284 1.648.432 2.549.414l210.125-2.531c1.39-.017 2.747-.419 3.921-1.163l12.954-8.201c1.917-1.214 4.129-1.855 6.398-1.855h119.037c4.143 0 7.5-3.358 7.5-7.5s-3.357-7.5-7.5-7.5h-17.074l-33.94-33.173c-2.963-2.896-7.712-2.841-10.605.122-2.896 2.962-2.841 7.71.121 10.606l22.965 22.446h-80.503c-5.115 0-10.103 1.446-14.423 4.182l-11.157 7.063-4.769.057-88.653-84.489 17.39-14.331 18.851 18.851c-.939 4.563.351 9.497 3.884 13.03l19.528 19.528c2.705 2.705 6.301 4.194 10.125 4.194s7.42-1.489 10.125-4.194l19.617-19.617c5.582-5.583 5.582-14.667 0-20.25l-19.527-19.527c-2.705-2.705-6.301-4.195-10.126-4.195-.991 0-1.966.105-2.915.3l-15.879-15.878 13.604-11.211c1.675-1.38 4.106-1.277 5.659.24l83.333 81.448c1.459 1.426 3.351 2.136 5.241 2.136 1.948 0 3.896-.754 5.364-2.258 2.896-2.962 2.841-7.71-.121-10.606l-83.332-81.448c-7.041-6.882-18.082-7.352-25.684-1.089l-17.555 14.467c-4.598-.68-9.425.364-13.468 3.242l-5.243 3.733c-4.455 3.171-7.272 8.116-7.728 13.566-.036.427-.031.851-.037 1.276l-23.823 19.632c-3.867 3.188-6.085 7.89-6.085 12.9v81.843l-6.431.077-21.929-64.758c-2.259-6.866-8.633-11.479-15.86-11.479h-39.143c-8.195 0-15.121 5.868-16.469 13.952l-1.677 10.056c-.682 4.085 2.078 7.95 6.164 8.631 4.086.678 7.95-2.079 8.631-6.165l1.677-10.056c.138-.822.841-1.418 1.674-1.418h39.143c.734 0 1.383.469 1.633 1.229l20.385 60.199-72.267.871-.931-.323 3.392-18.732c.738-4.076-1.968-7.979-6.044-8.716-4.068-.739-7.978 1.968-8.716 6.043l-2.975 16.429-60.642-21.04c-6.983-2.421-14.49 1.101-17.086 8.024l-3.652 9.74c-2.41 6.429.38 13.64 6.488 16.771l96.155 49.315c2.932 1.504 6.224 2.299 9.52 2.299h374.766c12.546 0 22.753-10.207 22.753-22.752v-30.702c.001-11.077-9.012-20.09-20.091-20.09zm-191.235-65.85-18.653 18.653-18.564-18.564 18.653-18.653zm-62.338-35.955c.051-.613.312-1.765 1.479-2.596l5.243-3.733c.623-.443 1.344-.661 2.06-.661.913 0 1.819.354 2.508 1.042l17.261 17.26-9.508 9.507-18.015-18.015c-1.014-1.012-1.079-2.191-1.028-2.804zm-29.892 45.719 70.981 67.648-70.981.855z"/></svg>